<svg width="145" height="54" viewBox="0 0 145 54" fill="none" xmlns="http://www.w3.org/2000/svg">
<g clip-path="url(#clip0)">
<path d="M57.8118 13.5001H63.5929V36.643H69.3741V7.71439H63.5929C60.4133 7.71439 57.8118 10.318 57.8118 13.5001Z" fill="#aaa"/>
<path d="M75.1553 36.643H80.9365V25.0715C80.9365 21.8894 78.3349 19.2858 75.1553 19.2858V36.643Z" fill="#aaa"/>
<path d="M86.7177 19.2858V36.643H92.4988V25.0715H98.28V30.8572C98.28 34.0394 100.882 36.643 104.061 36.643V25.0715C104.061 21.8894 101.46 19.2858 98.28 19.2858H86.7177Z" fill="#aaa"/>
<path d="M138.748 19.2858H132.967V13.5001C132.967 10.318 130.366 7.71439 127.186 7.71439V30.8572H115.624V25.0715H121.405V19.2858H115.624C112.444 19.2858 109.842 21.8894 109.842 25.0715V30.8572C109.842 34.0394 112.444 36.643 115.624 36.643H132.967V25.0715H138.748V30.8572C138.748 34.0394 141.35 36.643 144.529 36.643V25.0715C144.529 21.8894 141.928 19.2858 138.748 19.2858Z" fill="#aaa"/>
<path d="M75.1553 13.5001H80.9365C80.9365 10.318 78.3349 7.71439 75.1553 7.71439V13.5001Z" fill="#aaa"/>
<path fill-rule="evenodd" clip-rule="evenodd" d="M66.8251 42.4288V46.1684H66.2954L64.2146 43.5774V46.1684H63.593V42.4288H64.1227L66.2036 45.0305V42.4288H66.8251ZM78.585 46.1684H76.342V42.4288H78.5309V43.0431H77.0067V43.9727H78.3688V44.5871H77.0067V45.554H78.585V46.1684ZM88.1018 43.0431H89.3287V46.1684H89.9935V43.0431H91.2204V42.4288H88.1018V43.0431ZM105.369 42.4288H106.007L104.926 46.1684H104.304L103.391 43.4652L102.494 46.1684H101.867L100.737 42.4288H101.483L102.245 45.0946L103.088 42.4288H103.748L104.612 45.0999L105.369 42.4288ZM116.075 42.9844C115.708 43.3548 115.524 43.8124 115.524 44.3573C115.524 44.9308 115.71 45.3955 116.081 45.7517C116.452 46.1078 116.922 46.2859 117.491 46.2859C118.057 46.2859 118.527 46.1043 118.902 45.741C119.277 45.3777 119.464 44.9165 119.464 44.3573C119.464 43.7875 119.277 43.3227 118.902 42.963C118.531 42.6068 118.061 42.4288 117.491 42.4288C116.922 42.4288 116.45 42.614 116.075 42.9844ZM116.589 45.2976C116.347 45.0483 116.227 44.7349 116.227 44.3573C116.227 43.9727 116.346 43.6575 116.583 43.4118C116.825 43.166 117.127 43.0431 117.491 43.0431C117.848 43.0431 118.149 43.166 118.394 43.4118C118.639 43.6611 118.762 43.9763 118.762 44.3573C118.762 44.7349 118.646 45.0483 118.416 45.2976C118.189 45.5469 117.881 45.6716 117.491 45.6716C117.131 45.6716 116.83 45.5469 116.589 45.2976ZM129.646 44.7794V46.1791H128.981V42.4395C129.168 42.4395 129.372 42.4377 129.592 42.4341C129.811 42.4306 129.992 42.4288 130.132 42.4288C131.047 42.4288 131.505 42.8134 131.505 43.5827C131.505 43.8676 131.431 44.1027 131.283 44.2879C131.136 44.466 130.966 44.5871 130.775 44.6512L131.959 46.1791H131.154L130.111 44.7794H129.646ZM130.1 43.0431C130.082 43.0431 130.053 43.0449 130.013 43.0485C129.974 43.0485 129.918 43.0503 129.846 43.0538H129.646V44.165H130.078C130.291 44.165 130.464 44.1134 130.597 44.0101C130.734 43.9068 130.802 43.7661 130.802 43.5881C130.802 43.2248 130.568 43.0431 130.1 43.0431ZM141.476 46.1684H142.14V44.2398L143.686 46.1684H144.529L142.875 44.1704L144.432 42.4288H143.632L142.14 44.2024V42.4288H141.476V46.1684Z" fill="#2F7AEA"/>
<path d="M13.4186 29.4617L14.7675 19.2945L3.04858 11.1523L13.7558 14.7804L16.2851 10.8992L25.5169 5.16165L45.8775 16.3835L46.9313 33.5117L37.8681 46.1257L30.7019 47.2226L34.4115 40.4304V33.8913L31.7136 28.7867L28.9736 26.9726L24.7581 31.3179V35.9163L21.4701 38.996L17.2968 39.5023L15.442 40.557L12.4069 39.5867L11.1422 35.0304L13.4186 31.8242V29.4617Z" fill="white"/>
<path d="M32.1351 11.0678C29.9009 10.6038 27.4559 10.7303 27.4559 10.7303C27.4559 10.7303 26.655 14.4428 21.6808 15.4131C21.7229 15.4131 28.2569 17.6491 32.1351 11.0678Z" fill="#94A6C3"/>
<path d="M34.1584 44.7335C36.8563 42.6241 38.8797 39.7132 39.8071 36.4226C39.8493 36.296 40.2287 36.0851 40.4816 35.9163C40.9031 35.6632 41.3247 35.4523 41.409 35.1148C41.5776 34.1444 41.6619 33.1319 41.6619 32.1194C41.6619 31.7398 41.2825 31.3601 40.9031 30.9804C40.6081 30.7273 40.313 30.4319 40.313 30.221C39.8914 26.3819 38.121 22.796 35.2966 20.1804L35.0015 20.4757C37.7416 23.0491 39.5121 26.5507 39.8914 30.2632C39.9336 30.6007 40.2708 30.9382 40.6081 31.2757C40.9031 31.5288 41.2404 31.9085 41.2404 32.0773C41.2404 33.0476 41.1561 34.0179 40.9875 34.9882C40.9453 35.1569 40.5659 35.3257 40.2708 35.4944C39.8493 35.7054 39.4699 35.9163 39.3856 36.2538C38.3739 39.8398 36.0554 42.9616 32.9781 44.9866C33.5261 43.8054 35.2545 39.9663 36.1819 38.0257L36.0132 31.7819L30.6596 26.5929L27.6245 27.0148L24.2943 32.4148C24.2943 32.4148 25.854 34.3976 23.662 36.7179C21.5121 38.996 19.8259 39.5023 19.8259 39.5023L18.2662 38.6585C18.7299 38.0679 19.6573 37.1819 20.3739 36.5913C21.5964 35.5788 22.8189 35.4944 22.8189 34.3976C22.8611 32.1194 20.4161 32.7523 20.4161 32.7523L19.5309 33.596L19.1515 36.7179L17.2967 39.0382L17.0859 38.996L14.0508 38.321C14.0508 38.321 15.9056 37.3507 16.2007 36.2538C16.4957 35.1991 15.6105 31.6976 15.5683 31.4866C15.6105 31.5288 16.4536 32.246 16.833 33.4273C17.5074 31.571 18.3927 29.7991 18.6456 29.6304C18.8985 29.4616 22.313 27.6476 22.313 27.6476L21.1749 30.6429L22.018 30.1788L24.0414 25.2007C24.0414 25.2007 26.0226 24.2304 27.498 24.2304C30.1538 24.1882 34.0741 20.9398 32.3036 15.1179C32.8095 15.3288 41.5776 19.7163 43.0952 28.3226C44.2333 34.946 40.4816 41.1476 34.1584 44.7335Z" fill="#94A6C3"/>
<path d="M24.1259 11.996C25.0954 10.857 24.716 9.16946 24.716 9.16946L21.8917 13.346C21.8495 13.346 22.9034 13.3882 24.1259 11.996Z" fill="#0A192B"/>
<path d="M14.6411 34.8196L14.9783 33.1321C14.9783 33.1321 13.5872 35.5789 13.4608 35.9164C13.3343 36.2961 13.5451 36.9711 14.0931 36.9289C14.6411 36.8867 15.3156 36.0852 15.3156 35.4946C15.3156 34.7352 14.6411 34.8196 14.6411 34.8196Z" fill="#0A192B"/>
<path d="M39.6808 7.98826C39.6808 7.98826 41.7885 8.07264 43.9806 8.32576C39.0485 4.44451 34.3694 3.30545 30.5755 3.30545C25.3483 3.30545 21.8073 5.45701 21.5966 5.58358L23.2406 2.96795C23.2406 2.96795 16.6645 2.33514 14.346 9.29607C13.7558 7.81951 13.2078 5.66795 13.2078 5.66795C13.2078 5.66795 9.79333 8.66326 11.3952 13.6414C7.47484 12.207 1.8683 10.2242 1.65753 10.182C1.36245 10.1398 1.27814 10.2664 1.27814 10.2664C1.27814 10.2664 1.19383 10.393 1.44676 10.6039C1.91045 10.9836 10.7629 17.5226 12.702 18.7883C12.2804 20.307 12.2804 21.0242 12.702 21.7414C13.2921 22.7117 13.3343 23.2179 13.25 23.9351C13.1657 24.6523 12.4069 30.8539 12.2383 31.6133C12.0697 32.3726 10.2992 35.0726 10.3835 35.8742C10.4678 36.6758 11.5638 40.0929 12.5334 40.4726C13.25 40.7258 15.0205 41.2742 16.2008 41.2742C16.6223 41.2742 17.0017 41.1898 17.1704 41.0211C17.887 40.3883 18.0977 40.2617 18.6036 40.2617C18.6458 40.2617 18.6879 40.2617 18.7301 40.2617C18.9408 40.2617 19.1938 40.3039 19.4888 40.3039C20.1633 40.3039 21.0486 40.1773 21.6809 39.5867C22.6083 38.6586 24.2101 37.3929 24.716 36.8023C25.3483 36.0008 25.6855 34.9039 25.5169 33.807C25.3905 32.7945 25.9385 31.9086 26.5708 31.0226C27.3717 29.9679 28.8471 28.0695 28.8471 28.0695C31.7558 30.2633 33.5684 33.5961 33.5684 37.3086C33.5684 43.8898 27.8354 49.2054 20.7535 49.2054C19.6575 49.2054 18.6036 49.0789 17.5497 48.8258C20.7956 49.9648 23.5357 50.3445 25.7699 50.3445C30.5333 50.3445 33.0626 48.6148 33.0626 48.6148C33.0626 48.6148 32.1773 49.7539 30.7441 51.0617C30.7862 51.0617 30.7862 51.0617 30.7862 51.0617C38.6691 49.9648 42.5052 43.4679 42.5052 43.4679C42.5052 43.4679 42.2101 45.5773 41.8307 47.0117C52.3271 39.1226 50.5567 29.2508 50.5145 28.9133C50.5988 29.0398 51.6527 30.3054 52.2007 30.9804C53.8868 13.5992 39.6808 7.98826 39.6808 7.98826ZM23.5357 35.7476C23.3671 35.9586 22.6504 36.5914 22.1446 37.0554C21.6387 37.5195 21.0907 37.9836 20.6692 38.4054C20.5006 38.5742 20.1633 38.6586 19.6575 38.6586C19.4888 38.6586 19.3202 38.6586 19.1938 38.6586C19.1095 38.6586 19.0251 38.6586 18.9408 38.6586C18.8565 38.6586 18.8144 38.6586 18.7722 38.6586C18.6458 38.6586 18.5193 38.6586 18.3928 38.6586C19.0251 37.8148 20.8799 35.8742 21.5123 35.4523C22.271 34.9461 22.6504 34.4398 22.1867 33.5539C21.723 32.6679 20.5006 32.8789 20.5006 32.8789C20.5006 32.8789 21.2172 32.5836 21.8495 32.5836C21.0486 32.3726 20.0369 32.5836 19.5732 33.0476C19.0673 33.5117 19.1516 35.157 18.9408 36.2117C18.7301 37.3086 18.0134 37.857 16.9174 38.8695C16.3273 39.4179 15.9057 39.5867 15.5685 39.5867C14.8519 39.4601 14.0088 39.2492 13.4186 39.0383C12.9971 38.4898 12.3647 36.6758 12.1961 35.9164C12.3226 35.4945 12.8284 34.6086 13.0814 34.1023C13.5872 33.132 13.8823 32.5836 13.9666 32.0773C14.1352 31.3601 14.6832 26.9304 14.894 25.0742C15.442 25.7914 16.2008 26.9726 16.0322 27.732C17.2547 26.0023 16.3694 24.3148 15.9479 23.6398C15.5685 22.9648 15.0626 21.6148 15.4842 20.1804C15.9057 18.7461 17.4233 14.7804 17.4233 14.7804C17.4233 14.7804 17.9291 15.6664 18.6458 15.4976C19.3624 15.3289 25.1375 6.63826 25.1375 6.63826C25.1375 6.63826 26.6973 10.0554 25.0532 12.5445C23.3671 15.0336 21.723 15.4976 21.723 15.4976C21.723 15.4976 24.0415 15.9195 26.1914 14.3586C27.0766 16.4258 27.9197 18.5773 27.9619 18.8726C27.8354 19.1679 26.1492 23.2179 25.9806 23.4711C25.8963 23.5554 25.3062 23.7242 24.8846 23.8086C24.168 24.0195 23.7464 24.1461 23.5778 24.2726C23.2827 24.5258 21.9338 28.2383 21.3015 30.0523C20.5427 30.2633 19.7839 30.6851 19.2359 31.5289C19.531 31.3179 20.4584 31.1914 21.1329 31.107C21.723 31.0648 23.5357 32.0351 23.9994 33.8492C23.9994 33.8914 23.9994 33.8914 23.9994 33.9336C24.0837 34.6086 23.8729 35.2414 23.5357 35.7476ZM19.5732 36.2539C19.9525 35.7054 19.9104 34.7773 19.9525 34.482C19.9947 34.1867 20.079 33.6383 20.4162 33.5539C20.7535 33.4695 21.5544 33.5961 21.5544 34.1867C21.5544 34.7351 20.9643 34.8617 20.5427 35.2414C20.2476 35.5367 19.6575 36.1695 19.5732 36.2539ZM36.3928 28.1961C36.8143 26.0445 36.8565 24.1883 36.73 22.6695C38.374 24.8633 39.3857 27.5211 39.6808 30.2633C39.723 30.6008 40.0602 30.9383 40.3974 31.2758C40.6925 31.5289 41.0298 31.8664 41.0298 32.0773C41.0298 33.0476 40.9454 34.0179 40.7768 34.9883C40.7347 35.1148 40.3553 35.3258 40.0602 35.4945C39.6387 35.7054 39.2593 35.9164 39.175 36.2539C38.2476 39.5023 36.2663 42.3711 33.6106 44.3961C37.5309 40.3039 39.4279 33.5539 36.3928 28.1961ZM33.737 44.7758C36.4771 42.6664 38.5848 39.7133 39.5122 36.3804C39.5543 36.2539 39.9337 36.0429 40.1867 35.8742C40.6082 35.6633 41.0298 35.4101 41.1141 35.0726C41.2827 34.1023 41.367 33.0898 41.367 32.0773C41.367 31.6976 40.9876 31.3179 40.6082 30.9383C40.3974 30.6851 40.0602 30.3898 40.0602 30.1789C39.723 27.0992 38.5005 24.1883 36.6035 21.7836C35.7605 16.7211 32.3881 15.1601 32.3038 15.1179C32.3881 15.2445 34.5801 18.4086 33.0626 22.1211C31.5029 25.8758 27.4982 25.2851 27.161 25.3273C26.8237 25.3273 25.5169 27.0148 23.8729 30.1367C23.6621 30.0523 22.7769 29.8414 21.7652 30.0101C22.524 27.9008 23.6621 24.9054 23.8729 24.6523C23.9572 24.5679 24.5895 24.3992 25.0111 24.2726C25.812 24.0617 26.1914 23.9351 26.3179 23.7664C26.4022 23.6398 26.8237 22.6695 27.2453 21.657C27.6246 21.657 28.5942 21.5726 28.6785 21.5304C28.7628 21.4461 29.5637 19.3789 29.5637 19.1258C29.5637 18.9148 27.9197 14.8226 27.2874 13.2617C27.5825 12.9242 27.8776 12.5023 28.1727 12.0383C36.8143 12.9664 43.559 20.307 43.559 29.2086C43.559 36.0429 39.5543 41.9914 33.737 44.7758Z" fill="#0A192B"/>
<path d="M22.524 21.9945C23.3249 21.0664 22.9034 19.3367 21.428 19.0414C21.8073 18.1554 22.3554 16.3836 22.3554 16.3836C22.3554 16.3836 18.0556 23.1336 17.6762 23.2601C17.2968 23.3867 16.9174 21.9101 16.9174 21.9101C16.1165 24.9898 18.2664 25.4117 18.5193 24.4414C19.6996 24.1461 21.723 22.8804 22.524 21.9945Z" fill="#0A192B"/>
<path d="M18.8567 23.6399L21.0487 19.8853C21.0487 19.8853 22.3133 20.5181 21.681 21.5306C20.8801 22.7118 18.8567 23.6399 18.8567 23.6399Z" fill="#FFD923"/>
<path d="M45.9617 41.0211C45.3294 41.8649 44.6127 42.7508 43.7696 43.5946C49.2076 33.1321 44.0226 23.5555 43.8118 23.1758C44.1912 23.5555 44.5706 23.9774 44.9078 24.357C49.0811 28.9977 49.587 35.9586 45.9617 41.0211Z" fill="#D82122"/>
<path d="M51.0202 27.5633C49.1233 22.4586 46.4254 18.1133 40.4816 14.1898C34.7486 10.393 28.5941 10.6883 28.2568 10.7305C28.2147 10.7305 28.1725 10.7305 28.1725 10.7305C28.3833 10.6461 28.5941 10.6039 28.8048 10.5617C30.1116 10.1398 31.7978 9.80235 33.484 9.59141C37.9523 8.9586 42.4629 10.4773 45.5401 13.7258C45.5823 13.768 45.5823 13.768 45.6244 13.8102C49.1233 17.5227 50.9359 22.1633 51.0202 27.5633Z" fill="#D82122"/>
<path d="M39.1327 6.68058C32.8517 5.49933 28.8048 6.08995 25.8962 7.18683C25.8119 6.84933 25.5168 6.17433 25.2639 5.62589C24.3786 6.68058 23.4512 7.9462 22.8611 8.74777C21.2592 9.84464 20.5847 10.8993 20.5847 10.8993C21.5121 7.73527 24.21 5.37277 27.498 4.78214C28.4254 4.61339 29.4371 4.52902 30.5332 4.52902C33.4418 4.5712 36.3505 5.28839 39.1327 6.68058Z" fill="#D82122"/>
<path d="M15.9056 14.7806C10.9735 14.6118 12.6175 8.87433 12.7019 8.53683C12.7019 8.57902 13.0391 13.0509 15.9056 14.7806Z" fill="#D82122"/>
<path d="M20.7533 4.44458C16.9594 6.72271 17.7182 12.1649 17.7182 12.1649C14.0929 6.63833 20.4583 4.57114 20.7533 4.44458Z" fill="#D82122"/>
<path d="M14.5145 16.2992C14.7674 16.5102 15.0203 16.8898 14.7253 17.4383C14.5566 17.7336 14.3037 17.6914 13.9243 17.5227C13.4185 17.2695 10.3833 15.4977 7.64331 13.6836C10.7627 14.7805 13.9243 15.9617 14.4302 16.2148C14.4302 16.2148 14.4723 16.257 14.5145 16.2992Z" fill="white"/>
</g>
<defs>
<clipPath id="clip0">
<rect width="144.529" height="54" fill="white"/>
</clipPath>
</defs>
</svg>
