<svg id="Layer_1" data-name="Layer 1" xmlns="http://www.w3.org/2000/svg" viewBox="0 0 762.77 229.79"
>
<defs><style
    >.cls-1{fill:#4c4c4c;}.cls-2{fill:#8dc63f;}.cls-3{fill:#f9e988;}.cls-4{fill:#fff;}.cls-5{fill:#8bc53f;}.cls-6{fill:#009345;}.cls-7{fill:#58595b;}.cls-8{fill:none;}</style></defs><title
  >coingecko_logo-freelogovectors.net</title>
  <path
    class="cls-1"
    d="M337.78,379.59c-1.95-7.61-6.87-13.18-16.52-13.18-14.21,0-20.15,12.53-20.15,25.24s5.94,25.25,20.15,25.25c10.3,0,16-7.7,16.89-17.35h11.33c-.93,15.87-12.16,26.82-28.22,26.82-19.87,0-31.75-15.78-31.75-34.72s11.88-34.71,31.75-34.71c14.94.09,26.73,8.35,28.12,22.65Z"
    transform="translate(-18.62 -285.11)"
  /><path
    class="cls-1"
    d="M356.35,400.75c0-14.66,8.82-25.25,24.23-25.25s24.22,10.59,24.22,25.25-8.82,25.34-24.22,25.34S356.35,415.51,356.35,400.75Zm37.87,0c0-8.26-4.18-16.89-13.64-16.89s-13.65,8.63-13.65,16.89,4.18,17,13.65,17S394.22,409.11,394.22,400.75Z"
    transform="translate(-18.62 -285.11)"
  /><path class="cls-1" d="M413.9,358.52h10.58v10H413.9Zm0,18.28h10.58v48H413.9Z" transform="translate(-18.62 -285.11)" /><path
    class="cls-1"
    d="M436,376.8h10v7.06l.19.18a17.18,17.18,0,0,1,14.94-8.54c10.4,0,17,5.57,17,16.34v33H467.56V394.63c-.19-7.52-3.16-10.77-9.38-10.77-7.05,0-11.6,5.57-11.6,12.62v28.31H436Z"
    transform="translate(-18.62 -285.11)"
  /><path
    class="cls-1"
    d="M548.6,424.79h-7.43L539.41,417c-6.22,7.05-11.89,9.37-20,9.37-19.87,0-31.75-15.78-31.75-34.72s11.88-34.71,31.75-34.71c14.48,0,26.64,7.7,28.4,22.65H536.53c-1.12-8.73-8.73-13.18-17.08-13.18-14.2,0-20.15,12.53-20.15,25.24s5.95,25.25,20.15,25.25c11.88.19,18.38-7,18.56-18.19H520.38v-8.82H548.6Z"
    transform="translate(-18.62 -285.11)"
  /><path
    class="cls-1"
    d="M568,403.54c0,7.52,4.08,14.2,12.9,14.2,6.13,0,9.84-2.69,11.7-8h10c-2.32,10.49-11.23,16.33-21.72,16.33-15,0-23.48-10.49-23.48-25.25,0-13.64,8.91-25.34,23.2-25.34,15.13,0,24.42,13.65,22.65,28Zm24.69-7c-.37-6.68-4.92-12.71-12.07-12.71-7.33,0-12.34,5.57-12.62,12.71Z"
    transform="translate(-18.62 -285.11)"
  /><path
    class="cls-1"
    d="M643.75,392.86c-.84-5.85-5.11-9-11-9-5.47,0-13.18,2.88-13.18,17.45,0,8,3.53,16.43,12.72,16.43,6.13,0,10.4-4.08,11.42-10.95h10.58c-2,12.43-9.65,19.3-22,19.3-15,0-23.3-10.67-23.3-24.78,0-14.48,7.89-25.81,23.67-25.81,11.14,0,20.61,5.57,21.63,17.36Z"
    transform="translate(-18.62 -285.11)"
  /><path
    class="cls-1"
    d="M663.24,358.52h10.59V396.2L693,376.8h13l-18.38,17.64,20.15,30.35H694.8l-14.66-23.3-6.31,6.13v17.17H663.24Z"
    transform="translate(-18.62 -285.11)"
  /><path
    class="cls-1"
    d="M710.59,400.75c0-14.66,8.82-25.25,24.22-25.25S759,386.09,759,400.75s-8.82,25.34-24.23,25.34S710.59,415.51,710.59,400.75Zm37.87,0c0-8.26-4.18-16.89-13.65-16.89s-13.64,8.63-13.64,16.89,4.18,17,13.64,17S748.46,409.11,748.46,400.75Z"
    transform="translate(-18.62 -285.11)"
  /><path
    class="cls-2"
    d="M230.78,399.58a94.91,94.91,0,1,1-95.34-94.49A94.92,94.92,0,0,1,230.78,399.58Z"
    transform="translate(-18.62 -285.11)"
  /><path
    id="_Clipping_Path_"
    data-name="&lt;Clipping Path&gt;"
    class="cls-3"
    d="M223.63,399.6a87.76,87.76,0,1,1-88.16-87.36A87.76,87.76,0,0,1,223.63,399.6Z"
    transform="translate(-18.62 -285.11)"
  /><path
    id="_Path_"
    data-name="&lt;Path&gt;"
    class="cls-4"
    d="M137.47,317.93a48,48,0,0,1,16.87,0,51.33,51.33,0,0,1,16.11,5.4c5,2.75,9.33,6.48,13.63,10s8.59,7.08,12.67,11a64.24,64.24,0,0,1,10.8,13.05,74,74,0,0,1,7.57,15.25A69.29,69.29,0,0,1,218.23,406h-.56a156.51,156.51,0,0,0-8.22-31.36A122.93,122.93,0,0,0,203,360a145.65,145.65,0,0,0-8.54-13.7A49.85,49.85,0,0,0,183,334.73c-4.45-3.17-9.57-5.23-14.53-7.18s-9.92-3.89-15.07-5.38-10.42-2.6-15.91-3.68Z"
    transform="translate(-18.62 -285.11)"
  /><path
    class="cls-5"
    d="M180.37,368.6c-6.37-1.85-13-4.46-19.66-7.1-.38-1.68-1.87-3.77-4.87-6.32-4.37-3.79-12.57-3.69-19.66-2-7.82-1.84-15.55-2.49-23-.71C52.53,369.17,86.93,410,64.65,451c3.17,6.72,37.34,46,86.78,35.43,0,0-16.9-40.63,21.25-60.13C203.63,410.43,226,381.05,180.37,368.6Z"
    transform="translate(-18.62 -285.11)"
  /><path
    class="cls-4"
    d="M187.86,395.31a3.68,3.68,0,1,1-3.69-3.65A3.67,3.67,0,0,1,187.86,395.31Z"
    transform="translate(-18.62 -285.11)"
  /><path
    class="cls-6"
    d="M136.18,353.16c4.42.32,20.41,5.54,24.53,8.34-3.41-10-15-11.3-24.53-8.34Z"
    transform="translate(-18.62 -285.11)"
  /><path
    class="cls-4"
    d="M140.39,378.38a17,17,0,1,1-17-17A17,17,0,0,1,140.39,378.38Z"
    transform="translate(-18.62 -285.11)"
  /><path
    class="cls-7"
    d="M135.36,378.53a11.94,11.94,0,1,1-11.94-11.93A11.95,11.95,0,0,1,135.36,378.53Z"
    transform="translate(-18.62 -285.11)"
  /><path
    class="cls-5"
    d="M201.61,402.79c-13.75,9.69-29.39,17-51.57,17-10.38,0-12.48-11-19.34-5.62-3.55,2.79-16,9-25.95,8.56s-26-6.29-30.45-27.44c-1.77,21.15-2.68,36.73-10.62,54.59,15.82,25.33,53.53,44.86,87.75,36.46-3.67-25.68,18.77-50.84,31.42-63.71,4.78-4.87,14-12.83,18.76-19.88Z"
    transform="translate(-18.62 -285.11)"
  /><path
    class="cls-7"
    d="M201.07,403.43a61.75,61.75,0,0,1-14.52,9.31,92.3,92.3,0,0,1-16.3,5.94c-5.6,1.45-11.46,2.54-17.39,2s-12-2.56-15.91-7l.19-.22c4.84,3.13,10.37,4.23,15.89,4.39a75,75,0,0,0,16.71-1.39,91.3,91.3,0,0,0,16.24-5,61,61,0,0,0,14.91-8.24Z"
    transform="translate(-18.62 -285.11)"
  /></svg>
