<svg xmlns="http://www.w3.org/2000/svg" viewBox="0 0 64 64" width="64" height="64">
<g transform="translate(-156 -8.5)">
<path d="M188 72.3762C205.673 72.3762 220 58.0493 220 40.3762C220 22.7031 205.673 8.37622 188 8.37622C170.327 8.37622 156 22.7031 156 40.3762C156 58.0493 170.327 72.3762 188 72.3762Z" fill="#45CD85"/>
<path d="M184.48 58.2962C190.752 58.2962 196.064 54.2642 198.048 48.6962H194.144C192.416 52.2802 188.704 54.7122 184.48 54.7122C178.528 54.7122 173.664 49.8482 173.664 43.8962C173.664 39.6722 176.096 35.9602 179.68 34.2322V30.3282C174.112 32.3122 170.08 37.6242 170.08 43.8962C170.08 51.8322 176.544 58.2962 184.48 58.2962ZM196.512 44.5362C198.624 44.5362 200.608 43.9602 202.272 42.9362V39.6082C200.672 40.8242 198.752 41.5922 196.576 41.5922C193.504 41.5922 191.072 40.1202 189.92 37.6882H198.432L199.2 35.1282H189.152C189.088 34.7442 189.088 34.4242 189.088 34.0402C189.088 33.6562 189.088 33.2722 189.152 32.8882H199.904L200.672 30.3282H189.856C191.008 27.8322 193.376 26.3602 196.576 26.3602C198.304 26.3602 199.968 26.8082 201.504 27.6402L202.4 24.7602C200.672 23.8642 198.624 23.4162 196.576 23.4162C191.776 23.4162 188 26.1682 186.592 30.2642H183.776L183.008 32.6962H186.08C186.016 33.1442 186.016 33.5922 186.016 34.0402C186.016 34.4882 186.016 34.8722 186.08 35.3202H183.776L183.008 37.7522H186.656C188 41.8482 191.712 44.5362 196.512 44.5362Z" fill="white"/>
</g>
</svg>