<svg xmlns="http://www.w3.org/2000/svg" viewBox="0 0 347.51 215.8"><defs><style>.cls-1{fill:#cea483;stroke:#cea483;stroke-miterlimit:10;}</style></defs><title>2アセット 3</title><g id="css" data-name="css"><g id="css1" data-name="css1"><polygon class="cls-1" points="173.93 165.53 166.69 157.87 144.71 181.16 173.93 212.1 183.55 201.91 183.55 155.34 173.93 165.53"/><polygon class="cls-1" points="0.69 106.42 44.45 152.78 44.45 60.05 0.69 106.42"/><polygon class="cls-1" points="44.65 106.42 90.81 57.5 90.81 10.93 44.45 60.05 44.45 152.78 90.81 201.91 90.81 155.34 44.65 106.42"/><polygon class="cls-1" points="100.44 47.3 107.67 54.97 129.65 31.68 100.44 0.73 90.81 10.93 90.81 57.5 100.44 47.3"/><polygon class="cls-1" points="100.44 165.53 90.81 155.34 90.81 201.91 100.44 212.1 158.57 150.19 137.18 126.6 100.44 165.53"/><polygon class="cls-1" points="229.91 60.05 229.91 152.78 273.68 106.42 229.91 60.05"/><polygon class="cls-1" points="183.55 10.93 183.55 57.5 229.72 106.42 183.55 155.34 183.55 201.91 229.91 152.78 229.91 60.05 183.55 10.93"/><polygon class="cls-1" points="173.93 47.3 183.55 57.5 183.55 10.93 173.93 0.73 137.18 39.66 137.18 86.23 173.93 47.3"/><polygon class="cls-1" points="90.81 124.05 90.81 88.79 74.17 106.42 90.81 124.05"/><polygon class="cls-1" points="107.67 141.91 129.65 118.62 118.13 106.42 137.18 86.23 137.18 39.66 90.81 88.79 90.81 124.05 107.67 141.91"/><polygon class="cls-1" points="229.87 18.8 263.15 18.56 246.4 1.05 229.87 18.8"/><polygon class="cls-1" points="210.14 39.31 232.27 62.44 246.69 47.62 265.87 67.67 309.83 67.35 263.15 18.56 229.87 18.8 210.14 39.31"/><polygon class="cls-1" points="302.86 106.33 293.31 116.6 337.26 116.28 346.82 106.02 309.83 67.35 265.87 67.67 302.86 106.33"/><polygon class="cls-1" points="243.84 215.03 204.7 179.31 222.4 160.87 262.3 194.6 243.84 215.03"/><path class="cls-1" d="M196.94,136.84l-23-12.48-23,12.48,4.4-26.47L136.6,91.49l25.9-3.88,11.45-24,11.45,24,25.89,3.88-18.75,18.88Zm-23-23.59L184.5,119l-2-12.12,8.39-8.45-11.61-1.74L174,85.52l-5.33,11.15L157,98.41l8.39,8.45-2,12.12Z"/><polygon class="cls-1" points="293.31 116.6 337.26 116.28 243.84 215.03 223.88 189.07 293.31 116.6"/><polygon class="cls-1" points="293.31 116.7 337.26 116.39 295.81 159.99 251.73 159.99 293.31 116.7"/></g></g></svg>