<svg xmlns="http://www.w3.org/2000/svg" viewBox="0 0 64 64" width="64" height="64">
<g transform="translate(-76 -8.5)">
<path d="M108 72.3762C125.673 72.3762 140 58.0493 140 40.3762C140 22.7031 125.673 8.37622 108 8.37622C90.3269 8.37622 76 22.7031 76 40.3762C76 58.0493 90.3269 72.3762 108 72.3762Z" fill="#45CD85"/>
<path d="M106.656 57.1442C112.928 57.1442 118.24 53.1122 120.224 47.5442H116.32C114.592 51.1282 110.88 53.5602 106.656 53.5602C100.704 53.5602 95.84 48.6962 95.84 42.7442C95.84 38.5202 98.272 34.8082 101.856 33.0802V29.1762C96.288 31.1602 92.256 36.4722 92.256 42.7442C92.256 50.6802 98.72 57.1442 106.656 57.1442ZM114.912 39.5442V34.2962C116.704 34.7442 118.112 35.3202 118.112 36.8562C118.112 38.2642 116.896 39.2882 114.912 39.5442ZM112.48 44.4082H115.04V42.4242C118.816 41.9762 121.248 39.8002 121.248 36.8562C121.248 32.7602 117.984 31.8642 114.912 31.2882V25.8482C116.384 25.9762 117.984 26.4242 119.456 27.1282V23.9282C118.048 23.4162 116.512 23.0962 115.04 23.0322V21.1122H112.48V23.0322C108.576 23.4802 106.336 25.6562 106.336 28.4082C106.336 32.5682 109.536 33.5282 112.608 34.1042V39.5442C110.752 39.2882 108.768 38.5202 106.464 37.3042V40.6962C108.448 41.6562 110.496 42.2962 112.48 42.4242V44.4082ZM112.608 31.0322C110.816 30.6482 109.472 30.0082 109.472 28.4082C109.472 26.9362 110.624 26.0402 112.608 25.8482V31.0322Z" fill="white"/>
</g>
</svg>