<?xml version="1.0" encoding="UTF-8"?>
<svg width="20px" height="20px" viewBox="0 0 20 20" version="1.1" 
    xmlns="http://www.w3.org/2000/svg" 
    xmlns:xlink="http://www.w3.org/1999/xlink">
    <!-- Generator: Sketch 57.1 (83088) - https://sketch.com -->
    <title>icon/coin/dai</title>
    <desc>Created with Sketch.</desc>
    <circle style="background: white;" fill="white" r="8" cx="10" cy="10"/>
    <g id="icon/coin/dai" stroke="none" stroke-width="1" fill="none" fill-rule="evenodd">
        <path d="M10,0.8 C15.0810197,0.8 19.2,4.9189803 19.2,10 C19.2,15.0810197 15.0810197,19.2 10,19.2 C4.9189803,19.2 0.8,15.0810197 0.8,10 C0.8,4.9189803 4.9189803,0.8 10,0.8 Z M10.1868991,5.56902136 L6.43598749,5.56902136 L6.43531662,8.46802136 L5.26931662,8.46875893 L5.26931662,9.51569594 L6.43531662,9.51502136 L6.43531662,10.5250214 L5.26931662,10.525283 L5.26931662,11.57222 L6.43531662,11.5720214 L6.43598749,14.4309786 L10.1868991,14.4309786 C12.0803182,14.4309786 13.6963588,13.2433802 14.3307651,11.572439 L14.3307651,11.572439 L15.4716469,11.57222 L15.4716469,10.525283 L14.587016,10.5257173 C14.6073958,10.3533157 14.6178777,10.1778819 14.6178777,10 C14.6178777,9.83617039 14.6089865,9.67441744 14.5916603,9.51519735 L14.5916603,9.51519735 L15.4716469,9.51569594 L15.4716469,8.46875893 L14.3459809,8.46824138 C13.7225087,6.77592816 12.095648,5.56902136 10.1868991,5.56902136 L10.1868991,5.56902136 Z M13.1841733,11.5724919 C12.6179472,12.6495356 11.4881997,13.3840416 10.1868991,13.3840416 L10.1868991,13.3840416 L7.4829245,13.3840416 L7.48231662,11.5720214 Z M13.5364189,9.51480944 C13.5591683,9.67325981 13.5709407,9.83525511 13.5709407,10 C13.5709407,10.1789351 13.557053,10.3546265 13.5302966,10.5260553 L13.5302966,10.5260553 L7.48231662,10.5250214 L7.48231662,9.51502136 Z M10.1868991,6.61595837 C11.5046303,6.61595837 12.646449,7.36912972 13.2053511,8.46846847 L13.2053511,8.46846847 L7.48231662,8.46802136 L7.4829245,6.61595837 Z" id="Combined-Shape" fill="#FAB01E"></path>
    </g>
</svg>