<?xml version="1.0" encoding="UTF-8"?>
<svg width="50px" height="50px" viewBox="0 0 50 50" version="1.1" xmlns="http://www.w3.org/2000/svg" xmlns:xlink="http://www.w3.org/1999/xlink">
    <title>defi_pulse_index_set</title>
    <defs>
        <polygon id="path-1" points="0 0 48.1502247 0 48.1502247 48.3180124 0 48.3180124"></polygon>
    </defs>
    <g id="defi_pulse_index_set" stroke="none" stroke-width="1" fill="none" fill-rule="evenodd">
        <g>
            <g id="Fill-1-Clipped" transform="translate(0.122602, 0.126708)">
                <mask id="mask-2" fill="white">
                    <use xlink:href="#path-1"></use>
                </mask>
                <g id="path-1"></g>
                <path d="M48.1502247,24.1590062 C48.1502247,37.5017043 37.3714733,48.3180124 24.075104,48.3180124 C10.7787346,48.3180124 -1.68357488e-05,37.5017043 -1.68357488e-05,24.1590062 C-1.68357488e-05,10.8163081 10.7787346,0 24.075104,0 C37.3714733,0 48.1502247,10.8163081 48.1502247,24.1590062" id="Fill-1" fill="#8150E6" fill-rule="nonzero" mask="url(#mask-2)"></path>
            </g>
            <path d="M47.3730736,30.849277 L30.2329345,13.9236124 L20.4658431,12.0936099 L14.7496014,33.6779081 L29.1729558,47.9269913 C37.9480848,46.0765466 44.9640463,39.4319752 47.3730736,30.849277" id="Fill-4" fill="#3C176B" fill-rule="nonzero"></path>
            <path d="M22.1193832,31.7858017 L22.1193832,18.429926 L25.4831658,18.429926 C26.6138546,18.429926 27.6521152,18.5738663 28.5982843,18.861916 C29.54378,19.1499657 30.3628391,19.5980055 31.0551252,20.2060353 C31.1500788,20.2893247 31.2414969,20.3770067 31.3308948,20.4675607 C31.3425114,18.6571558 30.6891159,16.8530017 29.7644966,15.2215086 C28.7383578,14.9302489 27.6822513,14.781916 26.5946619,14.781916 L18.4338694,14.781916 L18.4338694,31.7690763 C19.674159,31.7832676 20.8853227,31.8844651 22.1193832,31.7858017" id="Fill-6" fill="#6B42BD" fill-rule="nonzero"></path>
            <path d="M36.2470512,21.1019627 C35.6620089,19.6835081 34.8818403,18.504954 33.9070505,17.5659627 C32.9317555,16.6274783 31.8106631,15.9290634 30.5432679,15.4700422 C30.2858493,15.3767851 30.0259052,15.2956919 29.7644461,15.2215255 C30.6890654,16.8530186 31.3424609,18.6571727 31.3308443,20.4675776 C31.892148,21.0364124 32.2507495,23.2421466 32.5874645,24.0885565 L22.1193327,33.6783304 L22.1193327,31.7858186 C20.8852722,31.884482 19.6741084,31.7832845 18.4339871,31.7690932 L18.4339871,37.3261714 L26.1558718,37.3261714 C27.403569,37.3261714 28.6758466,37.0972522 29.9728726,36.6382311 C31.2695621,36.1797168 32.4490747,35.4862012 33.5120838,34.5581913 C34.5747563,33.6301814 35.4426392,32.4572025 36.1153957,31.038241 C36.7881522,29.6197863 37.1245305,27.9398062 37.1245305,25.9983006 C37.1245305,24.0782509 36.8320935,22.5209242 36.2470512,21.1019627" id="Fill-8" fill="#9B74EC" fill-rule="nonzero"></path>
            <path d="M21.1840057,30.0252184 C22.3343925,30.0252184 23.4216451,29.881278 24.4452586,29.5932283 C25.4690405,29.3051786 26.3611669,28.8571389 27.1216376,28.249278 C27.8821085,27.6412482 28.4817977,26.8522793 28.9205374,25.8811886 C29.359277,24.9107737 29.5786469,23.7322196 29.5786469,22.3451886 C29.5786469,20.9802892 29.3835205,19.9184755 28.9936045,18.9369103 C28.6033519,17.9558519 28.0622509,17.1609699 27.3703016,16.5529401 C26.6778473,15.9449103 25.8589564,15.4968706 24.9132925,15.2089898 C23.9672918,14.9209401 22.9288628,14.7769998 21.7981738,14.7769998 L18.4345596,14.7769998 L18.4345596,30.0252184 L21.1840057,30.0252184 Z M14.7490458,11.1289898 L22.9096701,11.1289898 C24.2743758,11.1289898 25.5905947,11.3584159 26.8584948,11.8169302 C28.1257216,12.2759513 29.2468143,12.9743662 30.2221092,13.9130196 C31.1970673,14.8520109 31.977236,16.030396 32.5621099,17.4488507 C33.1471521,18.8678122 33.439589,20.4253078 33.439589,22.3451886 C33.439589,24.2866942 33.1032108,25.9666743 32.4304542,27.3851289 C31.7576977,28.8042594 30.889815,29.9770693 29.8273108,30.9052482 C28.7643016,31.8332581 27.5846208,32.5266047 26.2880998,32.985119 C24.9909053,33.4441401 23.7186277,33.6732283 22.4709303,33.6732283 L14.7490458,33.6732283 L14.7490458,11.1289898 Z" id="Fill-10" fill="#FFFFFF" fill-rule="nonzero"></path>
        </g>
    </g>
</svg>