<svg xmlns="http://www.w3.org/2000/svg" width="39" height="30" fill="none">
    <path d="M15.956 12.124a1.543 1.543 0 00-1.257.122L.753 20.47c-.008 0-.008.01-.017.01-.706.438-.93 1.262-.56 2.042.465.964 2.101 1.876 4.072 2.27.611.123 1.343.21 2.178.21 1.567 0 3.495-.315 5.639-1.332 1.661-.789 3.236-2.507 4.218-4.602 1.033-2.21 1.24-4.427.56-6.102a1.465 1.465 0 00-.887-.841zM37.58 20.487c-.009 0-.009-.009-.017-.009l-13.946-8.223a1.472 1.472 0 00-1.257-.123c-.404.14-.732.448-.886.842-.68 1.675-.474 3.901.56 6.102.98 2.095 2.556 3.813 4.217 4.602 2.135 1.017 4.063 1.332 5.639 1.332.835 0 1.566-.087 2.178-.21 1.97-.386 3.606-1.297 4.071-2.27.37-.78.147-1.596-.56-2.043z" fill="#7CE0D6"/>
    <path d="M17.815 5.12a.678.678 0 01-.672-.684c0-1.692-1.351-3.068-3.013-3.068a.679.679 0 01-.671-.684c0-.377.301-.684.671-.684 2.402 0 4.347 1.99 4.347 4.427a.668.668 0 01-.662.693zM20.587 5.12a.679.679 0 01-.672-.684C19.915 2 21.87.01 24.271.01c.37 0 .672.307.672.684a.679.679 0 01-.672.684c-1.661 0-3.013 1.376-3.013 3.068a.682.682 0 01-.671.675zM25.735 23.8H11.324l6.551 3.85c.396.236.844.35 1.291.35.448 0 .896-.114 1.292-.35l6.55-3.85h-1.273zM27.758 15.306H9.895v4.41H28.43v-4.41h-.671z" fill="#2C3437"/>
    <path d="M27.138 11.309l-.164-.097H11.35l-.163.097a2.65 2.65 0 00-1.292 2.27v1.727h18.551V13.58a2.715 2.715 0 00-1.308-2.27zM27.758 19.716H9.887v1.736c0 .929.49 1.806 1.29 2.27l.139.08H26.99l.147-.088a2.652 2.652 0 001.282-2.271v-1.736h-.663v.009z" fill="#FFDD0F"/>
    <path d="M20.45 7.382a2.51 2.51 0 00-2.575 0l-6.525 3.84H26.983l-6.534-3.84z" fill="#2C3437"/>
</svg>