<svg width="512" height="512" viewBox="0 0 512 512" fill="none" xmlns="http://www.w3.org/2000/svg">
<g clip-path="url(#clip0)">
<g clip-path="url(#clip1)">
<g clip-path="url(#clip2)">
<path fill-rule="evenodd" clip-rule="evenodd" d="M256.21 512.42C397.711 512.42 512.42 397.711 512.42 256.21C512.42 114.709 397.711 0 256.21 0C114.709 0 0 114.709 0 256.21C0 397.711 114.709 512.42 256.21 512.42Z" fill="white"/>
<path fill-rule="evenodd" clip-rule="evenodd" d="M390.086 117.233C361.949 96.554 327.206 84.3378 289.609 84.3378C195.811 84.3378 119.772 160.377 119.772 254.175C119.772 347.974 195.811 424.013 289.609 424.013C333.73 424.013 373.921 407.189 404.117 379.607C368.05 424.365 312.782 453.001 250.825 453.001C142.156 453.001 54.0625 364.907 54.0625 256.238C54.0625 147.568 142.156 59.4746 250.825 59.4746C305.225 59.4746 354.469 81.551 390.086 117.233Z" fill="url(#paint0_linear)"/>
<path fill-rule="evenodd" clip-rule="evenodd" d="M259.637 97.5425C337.776 106.607 398.431 173.011 398.431 253.581C398.431 337.396 332.792 405.88 250.114 410.433C264.005 414.333 278.656 416.419 293.793 416.419C382.849 416.419 455.044 344.224 455.044 255.168C455.044 166.112 382.849 93.918 293.793 93.918C282.074 93.918 270.647 95.1682 259.637 97.5425Z" fill="url(#paint1_linear)"/>
<path fill-rule="evenodd" clip-rule="evenodd" d="M233.084 153.733H244.5V182.124L250.239 181.971H258.489C261.211 181.971 263.843 182.004 266.384 182.069V153.733H277.8V182.624C293.648 183.804 305.048 186.589 312.001 190.977C321.515 196.98 326.271 205.162 326.271 215.522C326.271 223.343 323.131 229.964 316.851 235.385C310.571 240.805 301.113 245.059 288.478 248.146C303.343 250.616 314.491 254.99 321.923 261.268C329.356 267.546 333.072 275.727 333.072 285.813C333.072 297.134 328.315 306.053 318.802 312.571C310.231 318.443 296.564 321.67 277.8 322.252V352.778H266.384V322.348H244.5V352.778H233.084V322.348H192.156V310.924C200.109 310.924 205.386 309.775 207.987 307.477C210.588 305.178 211.889 300.633 211.889 293.84V212.023C211.889 205.436 210.663 200.942 208.21 198.541C205.757 196.139 200.406 194.939 192.156 194.939V183.515L233.084 182.427V153.733ZM259.158 242.171H251.466V194.11C259.492 194.11 265.568 194.659 269.693 195.757C273.818 196.854 277.144 199.29 279.671 203.064C282.198 206.837 283.461 211.983 283.461 218.501C283.461 227.214 281.455 233.338 277.441 236.871C273.428 240.405 267.333 242.171 259.158 242.171ZM251.466 254.73V294.353C251.466 298.195 251.893 301.111 252.748 303.101C253.602 305.09 255.275 306.754 257.764 308.092C260.254 309.43 263.766 310.099 268.3 310.099C275.36 310.099 280.656 307.8 284.186 303.204C287.716 298.607 289.482 291.711 289.482 282.518C289.482 275.176 288.33 269.43 286.026 265.279C283.722 261.128 280.563 258.333 276.549 256.892C272.536 255.451 266.59 254.73 258.712 254.73H251.466Z" fill="url(#paint2_linear)"/>
</g>
</g>
</g>
<defs>
<linearGradient id="paint0_linear" x1="223.302" y1="59.4746" x2="223.302" y2="453.001" gradientUnits="userSpaceOnUse">
<stop stop-color="#20203D"/>
<stop offset="0.932292" stop-color="#292946"/>
</linearGradient>
<linearGradient id="paint1_linear" x1="316.338" y1="93.918" x2="316.338" y2="416.419" gradientUnits="userSpaceOnUse">
<stop stop-color="#51516C"/>
<stop offset="0.932292" stop-color="#797ABC"/>
</linearGradient>
<linearGradient id="paint2_linear" x1="230.94" y1="197.514" x2="259.192" y2="372.852" gradientUnits="userSpaceOnUse">
<stop offset="0.0594619" stop-color="#21213E"/>
<stop offset="1" stop-color="#7A7BBD"/>
</linearGradient>
<clipPath id="clip0">
<rect width="512" height="512" fill="white"/>
</clipPath>
<clipPath id="clip1">
<rect width="512" height="512" fill="white"/>
</clipPath>
<clipPath id="clip2">
<rect width="512.42" height="512.42" fill="white"/>
</clipPath>
</defs>
</svg>
