<svg width="512" height="512" viewBox="0 0 512 512" fill="none" xmlns="http://www.w3.org/2000/svg">
<g clip-path="url(#clip0)">
<path fill-rule="evenodd" clip-rule="evenodd" d="M256 512C397.385 512 512 397.385 512 256C512 114.615 397.385 0 256 0C114.615 0 0 114.615 0 256C0 397.385 114.615 512 256 512Z" fill="white"/>
<path d="M338.607 301.514C348.284 286.999 353.659 269.796 353.659 251.339C353.659 199.551 310.114 157.44 256.176 157.44C232.164 157.44 210.122 165.862 193.278 179.66C192.74 180.019 192.203 180.377 191.665 180.915C191.486 181.094 191.307 181.273 190.948 181.452C190.769 181.631 190.411 181.99 190.231 182.169C189.515 182.707 188.977 183.244 188.26 183.961C187.364 184.857 186.468 185.753 185.751 186.649C175.358 197.58 168.19 211.736 164.427 226.968C164.427 227.147 164.248 227.327 164.248 227.685C156.901 252.414 156.184 283.774 172.132 317.642C198.474 374.089 263.344 404.732 335.381 402.761C335.561 402.761 335.561 402.761 335.74 402.761C343.983 402.582 347.029 413.513 339.861 417.276C315.132 430.178 286.819 437.346 257.072 437.346C157.438 437.346 76.7993 356.707 76.7993 257.073C76.7993 164.07 147.403 87.3734 237.898 77.876C244.17 77.1592 250.621 76.8008 257.072 76.8008C296.675 76.8008 333.41 89.5238 363.157 111.207C371.221 117.12 378.747 123.571 385.736 130.739C402.401 149.555 412.436 173.747 412.436 200.268C412.436 247.038 381.614 286.82 338.607 301.514Z" fill="url(#paint0_linear)"/>
<path d="M435.198 256.19C435.198 256.548 435.198 256.907 435.198 257.265C434.839 315.683 395.595 365.321 340.94 376.79C334.309 378.223 326.962 379.119 321.407 379.657C255.283 385.033 204.929 354.032 182.529 303.677C179.304 296.509 176.974 289.341 175.361 282.532C173.928 276.797 172.853 271.242 172.315 265.687C172.315 265.508 172.315 265.329 172.315 265.15C170.881 251.71 172.136 239.166 174.824 227.877C174.824 227.697 174.824 227.518 174.824 227.339C175.003 226.801 175.182 226.264 175.182 225.726C176.078 221.963 177.87 218.558 179.841 215.512C186.113 206.373 200.091 209.24 202.42 219.992C204.75 231.46 208.334 244.721 212.814 252.606C231.092 284.861 265.498 306.723 305.1 306.723C317.644 306.723 329.83 304.573 341.119 300.452C382.155 285.578 411.364 245.975 411.364 199.384C411.364 172.863 401.688 148.671 385.918 129.855C411.723 157.452 429.463 193.829 433.943 234.328C434.839 241.675 435.198 248.843 435.198 256.19Z" fill="url(#paint1_linear)"/>
</g>
<defs>
<linearGradient id="paint0_linear" x1="76.7993" y1="257.168" x2="412.381" y2="257.168" gradientUnits="userSpaceOnUse">
<stop stop-color="#2D2D4C"/>
<stop offset="1" stop-color="#1E1E3A"/>
</linearGradient>
<linearGradient id="paint1_linear" x1="171.678" y1="255.099" x2="435.198" y2="255.099" gradientUnits="userSpaceOnUse">
<stop stop-color="#8592B9"/>
<stop offset="1" stop-color="#6D5D91"/>
</linearGradient>
<clipPath id="clip0">
<rect width="512" height="512" fill="white"/>
</clipPath>
</defs>
</svg>
