<?xml version="1.0" encoding="utf-8"?>
<!-- Generator: Adobe Illustrator 25.2.3, SVG Export Plug-In . SVG Version: 6.00 Build 0)  -->
<svg version="1.1" id="Layer_1" xmlns="http://www.w3.org/2000/svg" xmlns:xlink="http://www.w3.org/1999/xlink" x="0px" y="0px"
	 width="128px" height="128px" viewBox="0 0 128 128" style="enable-background:new 0 0 128 128;" xml:space="preserve">
<style type="text/css">
	.st0{fill:#1C68F3;}
	.st1{fill-rule:evenodd;clip-rule:evenodd;fill:#FFFFFF;}
</style>
<g id="MB--Logo--Geo--ForceCircle--Blue" transform="translate(0.177 0.177)">
	<circle id="Ellipse_143" class="st0" cx="63.8" cy="63.8" r="63.5"/>
	<path id="Path_4650" class="st1" d="M101.9,49v21.1H35.7c3.5,15.5,18.9,25.2,34.4,21.7c8.5-1.9,15.6-7.6,19.5-15.4h12.3v17.8
		c0,4.2-3.4,7.6-7.6,7.6H33.4c-4.2,0-7.6-3.4-7.6-7.6V49H101.9z M82.3,76.5c-7,10.2-20.9,12.9-31.2,5.9c-2.3-1.6-4.3-3.6-5.9-5.9
		H82.3z M47.5,54.1c-5.9,0-10.9,4.3-11.7,10.1h6.5c0.9-2.9,4-4.5,6.9-3.5c1.7,0.5,3,1.9,3.5,3.5h6.5C58.4,58.4,53.4,54.1,47.5,54.1z
		 M80.1,54.1c-5.9,0-10.9,4.3-11.7,10.1h6.5c0.9-2.9,4-4.5,6.9-3.5c1.7,0.5,3,1.9,3.5,3.5h6.5C91,58.4,86,54.1,80.1,54.1L80.1,54.1z
		 M94.3,25.8c4.2,0,7.6,3.4,7.6,7.6c0,0,0,0,0,0v9.3H25.8v-9.3c0-4.2,3.4-7.6,7.6-7.6l0,0H94.3z"/>
</g>
</svg>
