<?xml version="1.0" encoding="utf-8"?>
<!-- Generator: Adobe Illustrator 24.3.0, SVG Export Plug-In . SVG Version: 6.00 Build 0)  -->
<svg version="1.1" id="Layer_1" xmlns="http://www.w3.org/2000/svg" xmlns:xlink="http://www.w3.org/1999/xlink" x="0px" y="0px"
	 width="50px" height="50px" viewBox="0 0 50 50" style="enable-background:new 0 0 50 50;" xml:space="preserve">
<style type="text/css">
	.st0{fill:#FFFFFF;}
</style>
<g>
	<circle cx="25" cy="25" r="25"/>
	<g>
		<path class="st0" d="M37.4,29.2c-1.5,0-2.9,0-4.5,0c0-2.8,0-5.5,0-8.2c0-0.8,0-1.5-0.2-2.3c-0.2-1.3-1.1-1.9-2.3-1.9
			c-1.2-0.1-2.2,0.3-2.6,1.6c-0.3,1-0.4,2.1-0.4,3.2c-0.1,2.5,0,5,0,7.6c-1.6,0-3,0-4.5,0c0-0.5-0.1-0.9-0.1-1.3c0-2.7,0-5.4,0-8.1
			c0-2.1-0.9-3-2.6-3c-1.8,0-2.8,1-2.8,3c-0.1,2.7,0,5.3,0,8c0,0.5,0,0.9,0,1.5c-1.6,0-3,0-4.6,0c0-5.1,0-10.1,0-15.2
			c1.3,0,2.7,0,4.2,0c0.1,0.5,0.2,1,0.3,1.8c1.4-1.7,3.1-2.3,5.1-2.2c2,0.1,3.6,0.8,4.7,2.9c1.3-2.3,3.3-3,5.6-2.8
			c2.6,0.2,4.6,1.9,4.8,4.5C37.5,21.8,37.4,25.4,37.4,29.2z"/>
		<path class="st0" d="M37.4,32.8c0,1.2,0,2.4,0,3.6c-8.3,0-16.5,0-24.8,0c0-1.2,0-2.4,0-3.6C20.9,32.8,29.1,32.8,37.4,32.8z"/>
	</g>
</g>
</svg>
