<svg width="480" height="480" viewBox="0 0 480 480" fill="none" xmlns="http://www.w3.org/2000/svg">
<mask id="mask0-903349" mask-type="alpha" maskUnits="userSpaceOnUse" x="0" y="0" width="480" height="480">
<circle cx="240" cy="240" r="240" fill="url(#paint0_linear-392836)"/>
</mask>
<g mask="url(#mask0-903349)">
<circle cx="240" cy="240" r="240" fill="#31D8A4"/>
<circle cx="240" cy="240" r="208" fill="white"/>
</g>
<circle cx="240" cy="240" r="184" fill="#0E052F"/>
<path d="M264 326.8C254.4 326.8 245.52 325.44 237.36 322.72C229.2 319.84 221.92 315.76 215.52 310.48C209.28 305.2 204 298.88 199.68 291.52C195.52 284 192.56 275.68 190.8 266.56H168V249.04H188.88C188.72 247.92 188.64 246.72 188.64 245.44C188.64 244.16 188.64 242.8 188.64 241.36C188.64 239.6 188.64 237.92 188.64 236.32C188.8 234.56 188.88 233.12 188.88 232H168V214.48H190.56C192.32 205.04 195.36 196.56 199.68 189.04C204.16 181.52 209.6 175.2 216 170.08C222.56 164.8 230 160.8 238.32 158.08C246.64 155.36 255.6 154 265.2 154C276.24 154 285.44 155.44 292.8 158.32C300.16 161.2 306.4 164.8 311.52 169.12L299.52 192.16C294.08 188 288.64 185.12 283.2 183.52C277.92 181.92 272 181.12 265.44 181.12C253.76 181.12 244 184 236.16 189.76C228.32 195.52 223.28 203.76 221.04 214.48H290.88L282.48 232H219.12C219.12 233.44 219.04 234.88 218.88 236.32C218.88 237.76 218.88 239.12 218.88 240.4C218.88 241.84 218.88 243.28 218.88 244.72C219.04 246.16 219.12 247.6 219.12 249.04H277.68L269.28 266.56H221.04C223.28 277.12 228.24 285.28 235.92 291.04C243.76 296.8 253.44 299.68 264.96 299.68C272.16 299.68 278.4 298.8 283.68 297.04C289.12 295.12 293.76 292.72 297.6 289.84L311.52 311.68C305.76 316.64 298.96 320.4 291.12 322.96C283.44 325.52 274.4 326.8 264 326.8Z" fill="white"/>
<defs>
<linearGradient id="paint0_linear-392836" x1="240" y1="0" x2="240" y2="701.818" gradientUnits="userSpaceOnUse">
<stop stop-color="#08021E"/>
<stop offset="1" stop-color="#1F0777"/>
</linearGradient>
</defs>
</svg>