<svg width="24" height="24" viewBox="0 0 24 24" fill="none" xmlns="http://www.w3.org/2000/svg">
<path fill-rule="evenodd" clip-rule="evenodd" d="M9.75952 10.566L11.9999 15.5252L15.3272 13.6043H15.3332V9.76263L9.75952 10.566Z" fill="#2BBDF7"/>
<path fill-rule="evenodd" clip-rule="evenodd" d="M19.6323 6.8812L17.555 6.10199L15.3328 5.92078V9.76248V17.8929L18.6661 19.8137L21.3231 14.4015L19.6383 9.19468L19.6323 6.8812Z" fill="#2891F9"/>
<path fill-rule="evenodd" clip-rule="evenodd" d="M19.4397 5.92078L18.6667 7.84163V19.7835L22.0001 17.8627V5.92078H19.4397Z" fill="#2BBDF7"/>
<path fill-rule="evenodd" clip-rule="evenodd" d="M18.6661 4L15.3328 5.92085L18.6661 7.8417L21.9994 5.92085L18.6661 4Z" fill="#2B6DEF"/>
<path fill-rule="evenodd" clip-rule="evenodd" d="M12 11.6833L8.66667 7.95036L2 5.92078V17.8627L5.33333 19.7835L6.28744 13.1753L8.66667 13.6042L12 15.525V11.6833Z" fill="#2891F9"/>
<path fill-rule="evenodd" clip-rule="evenodd" d="M5.33358 4L2.00024 5.92085L12.0002 11.6834L13.5099 10.8136L15.3336 9.76255L5.33358 4Z" fill="#2B6DEF"/>
<path fill-rule="evenodd" clip-rule="evenodd" d="M5.33374 11.6834V19.7836L8.66707 17.8628V13.6043L5.33374 11.6834Z" fill="#2BBDF7"/>
</svg>
