<?xml version="1.0" encoding="utf-8"?>
<!-- Generator: Adobe Illustrator 24.3.0, SVG Export Plug-In . SVG Version: 6.00 Build 0)  -->
<svg version="1.1" id="Layer_1" xmlns="http://www.w3.org/2000/svg" xmlns:xlink="http://www.w3.org/1999/xlink" x="0px" y="0px"
	 width="2000px" height="2000px" viewBox="0 0 2000 2000" style="enable-background:new 0 0 2000 2000;" xml:space="preserve">
<style type="text/css">
	.st0{fill:#FF2E84;}
	.st1{fill:#FFFFFF;}
</style>
<path class="st0" d="M934.2,0h121.8c255.2,16.2,503.3,130.5,676.5,319.6C1891.6,488.3,1983.5,714,2000,944.4v110.9
	c-16.8,235.4-112.6,465.8-278,635.5c-172.4,183.1-416.2,292-666.4,309.2H934.8c-87.5-10.4-175.1-24.6-258.4-54
	c-256.1-86.3-472.6-281.9-585-527.7c-54.7-116.4-83.4-243.9-91.3-372V944c15.6-248,123.5-489.2,303.2-661.5
	C471.4,116.8,699.7,18.9,934.2,0"/>
<g>
	<path class="st1" d="M368.8,1092.4c-9.4-64.6-3-132.6,26.9-191.2c49-105.7,162.4-177.6,278.9-176.6c42.9-2.4,84.4,9.7,125.7,18.8
		c-10.8-36.2-23.7-71.9-37-107.3c26.6-14.5,54.9-25.3,85.1-29.2c28.6,92.5,66,181.9,95.6,274.1c-93.2,25.5-185.3,55.1-279.1,78.4
		c-11.7-27.6-20.2-56.5-20.7-86.8c38.8-11.9,79.6-18.1,117.3-33.2c1.7-3.1,5-9.5,6.6-12.6c-54.3-16.5-113.5-21.5-167.5-0.4
		c-89.8,30.6-151.2,124-148.7,218c3.9,62.2,31.1,124.1,79.9,164c80.5,72.3,214.9,70.6,294.5-2.3c30.1-25.9,47.8-62.6,74.9-91.2
		c35.4-10.3,73.7-3,110.2-4.1c-52.4,73.9-100,158-181.9,203c-97.8,55.7-225.5,50.2-319.5-10.8
		C437.4,1255.5,383.8,1178.3,368.8,1092.4"/>
	<path class="st1" d="M604.5,1071.8c-0.7-29.6-0.6-59.1,0-88.6c106.6-6.2,213.4-1.5,320.2-2.9c164.1,6.2,328.3,1.6,492.5,3.3
		c1.8,29.6,2,59.3-1.3,88.8C1145.4,1072,874.9,1072.5,604.5,1071.8"/>
	<path class="st1" d="M1026.6,942.3c55.1-89.4,125.4-181.9,233.2-207.6c172.6-52.2,371.6,77.5,391.2,257.2
		c33.5,162.3-91.6,331.1-253.4,356c-68.6,17.1-135-11.5-197-37.5c6.6,37.9,14,75.7,23.7,113c-28.4,11.9-59.1,14.9-89.6,16.3
		c-14.2-95.6-45.1-188.5-53.3-285c95.7-11.8,190.8-29.1,287-36c5.4,28.4,9.4,57.1,11.9,85.9c-44.8,8.1-90.2,11.6-135,19.3
		c87.7,75.9,228.8,29,285.4-63.1c59.1-86.4,44.4-212.7-32.3-283.6c-69.2-71.6-188-84.6-271.9-31.6c-40.2,22.6-65,62.6-93.4,97.4
		C1097.5,944,1062,944.8,1026.6,942.3"/>
</g>
</svg>
