<?xml version="1.0" encoding="UTF-8"?>
<svg width="80px" height="80px" viewBox="0 0 80 80" version="1.1" xmlns="http://www.w3.org/2000/svg" xmlns:xlink="http://www.w3.org/1999/xlink">
    <!-- Generator: Sketch 46.2 (44496) - http://www.bohemiancoding.com/sketch -->
    <title>Face ID</title>
    <desc>Created with Sketch.</desc>
    <defs></defs>
    <g id="Page-1" stroke="none" stroke-width="1" fill="none" fill-rule="evenodd">
        <g id="Face-ID" fill="#000000">
            <g>
                <g>
                    <g id="Corners" fill-rule="nonzero">
                        <g id="Corner">
                            <path d="M4.11428571,21.9428571 L4.11428571,13.0285714 C4.11428571,7.99327149 7.99327149,4.11428571 13.0285714,4.11428571 L21.9428571,4.11428571 C23.0789858,4.11428571 24,3.19327149 24,2.05714286 C24,0.921014229 23.0789858,0 21.9428571,0 L13.0285714,0 C5.72101423,0 0,5.72101423 0,13.0285714 L0,21.9428571 C0,23.0789858 0.921014229,24 2.05714286,24 C3.19327149,24 4.11428571,23.0789858 4.11428571,21.9428571 Z"></path>
                        </g>
                        <g id="Corner" transform="translate(68.070175, 11.929825) scale(-1, 1) translate(-68.070175, -11.929825) translate(56.140351, 0.000000)">
                            <path d="M4.11428571,21.9428571 L4.11428571,13.0285714 C4.11428571,7.99327149 7.99327149,4.11428571 13.0285714,4.11428571 L21.9428571,4.11428571 C23.0789858,4.11428571 24,3.19327149 24,2.05714286 C24,0.921014229 23.0789858,0 21.9428571,0 L13.0285714,0 C5.72101423,0 0,5.72101423 0,13.0285714 L0,21.9428571 C0,23.0789858 0.921014229,24 2.05714286,24 C3.19327149,24 4.11428571,23.0789858 4.11428571,21.9428571 Z"></path>
                        </g>
                        <g id="Corner" transform="translate(11.929825, 68.070175) scale(1, -1) translate(-11.929825, -68.070175) translate(0.000000, 56.140351)">
                            <path d="M4.11428571,21.9428571 L4.11428571,13.0285714 C4.11428571,7.99327149 7.99327149,4.11428571 13.0285714,4.11428571 L21.9428571,4.11428571 C23.0789858,4.11428571 24,3.19327149 24,2.05714286 C24,0.921014229 23.0789858,0 21.9428571,0 L13.0285714,0 C5.72101423,0 0,5.72101423 0,13.0285714 L0,21.9428571 C0,23.0789858 0.921014229,24 2.05714286,24 C3.19327149,24 4.11428571,23.0789858 4.11428571,21.9428571 Z"></path>
                        </g>
                        <g id="Corner" transform="translate(68.070175, 68.070175) scale(-1, -1) translate(-68.070175, -68.070175) translate(56.140351, 56.140351)">
                            <path d="M4.11428571,21.9428571 L4.11428571,13.0285714 C4.11428571,7.99327149 7.99327149,4.11428571 13.0285714,4.11428571 L21.9428571,4.11428571 C23.0789858,4.11428571 24,3.19327149 24,2.05714286 C24,0.921014229 23.0789858,0 21.9428571,0 L13.0285714,0 C5.72101423,0 0,5.72101423 0,13.0285714 L0,21.9428571 C0,23.0789858 0.921014229,24 2.05714286,24 C3.19327149,24 4.11428571,23.0789858 4.11428571,21.9428571 Z"></path>
                        </g>
                    </g>
                    <g id="Eye" transform="translate(21.754386, 28.070175)" fill-rule="nonzero">
                        <path d="M0,2.14285714 L0,7.86037654 C0,9.04384386 0.8954305,10.0032337 2,10.0032337 C3.1045695,10.0032337 4,9.04384386 4,7.86037654 L4,2.14285714 C4,0.959389822 3.1045695,0 2,0 C0.8954305,0 0,0.959389822 0,2.14285714 Z" id="Path"></path>
                    </g>
                    <g id="Eye" transform="translate(54.736842, 28.070175)" fill-rule="nonzero">
                        <path d="M0,2.14285714 L0,7.86037654 C0,9.04384386 0.8954305,10.0032337 2,10.0032337 C3.1045695,10.0032337 4,9.04384386 4,7.86037654 L4,2.14285714 C4,0.959389822 3.1045695,0 2,0 C0.8954305,0 0,0.959389822 0,2.14285714 Z" id="Path"></path>
                    </g>
                    <path d="M25.9319616,59.0829234 C29.8331111,62.7239962 34.5578726,64.5614035 40,64.5614035 C45.4421274,64.5614035 50.1668889,62.7239962 54.0680384,59.0829234 C54.9180398,58.2895887 54.9639773,56.9574016 54.1706427,56.1074002 C53.377308,55.2573988 52.0451209,55.2114613 51.1951195,56.0047959 C48.0787251,58.9134307 44.382434,60.3508772 40,60.3508772 C35.617566,60.3508772 31.9212749,58.9134307 28.8048805,56.0047959 C27.9548791,55.2114613 26.622692,55.2573988 25.8293573,56.1074002 C25.0360227,56.9574016 25.0819602,58.2895887 25.9319616,59.0829234 Z" id="Mouth" fill-rule="nonzero"></path>
                    <path d="M40,30.1754386 L40,44.9122807 C40,45.85537 39.539042,46.3157895 38.5912711,46.3157895 L37.1929825,46.3157895 C36.0302777,46.3157895 35.0877193,47.2583479 35.0877193,48.4210526 C35.0877193,49.5837574 36.0302777,50.5263158 37.1929825,50.5263158 L38.5912711,50.5263158 C41.8633505,50.5263158 44.2105263,48.1818819 44.2105263,44.9122807 L44.2105263,30.1754386 C44.2105263,29.0127339 43.2679679,28.0701754 42.1052632,28.0701754 C40.9425584,28.0701754 40,29.0127339 40,30.1754386 Z" id="Nose" fill-rule="nonzero"></path>
                </g>
            </g>
        </g>
    </g>
</svg>