<svg xmlns="http://www.w3.org/2000/svg" width="128" height="128" viewBox="0 0 128 128"><defs><style>.a{fill:#6186ff;}</style></defs><path class="a" d="M118.82,40.84a59.55,59.55,0,0,0-78-31.66,59.55,59.55,0,0,0-31.66,78,59.55,59.55,0,0,0,78,31.66,59.55,59.55,0,0,0,31.66-78ZM64,7.5a56.28,56.28,0,0,1,31.79,9.78l2.85,26.37a3.23,3.23,0,0,1-4.17,3.45L75.08,41.18A3.24,3.24,0,0,0,71,43.53L66.1,64a3.24,3.24,0,0,1-4.59,2.16L12.09,41.66A56.52,56.52,0,0,1,64,7.5Zm0,113A56.53,56.53,0,0,1,10.24,81.44l69.61,19.8A3.24,3.24,0,0,0,84,98.14l.16-39.77a3.25,3.25,0,0,1,4.38-3l14.65,5.45a3.24,3.24,0,0,0,4.32-3.63l-6.74-36.08A56.5,56.5,0,0,1,64,120.5Z"/></svg>