<svg width="351.901" height="70.801" viewBox="0 0 351.901 70.801"
    xmlns="http://www.w3.org/2000/svg">
    <g id="svgGroup" stroke-linecap="round" fill-rule="evenodd" font-size="9pt" stroke="#000" stroke-width="0" fill="currentColor">
        <path d="M 29.1 70 L 20.6 70 L 0 3.8 L 7.9 3.8 L 24.9 59.4 L 42.7 3.8 L 51.3 3.8 L 69.1 59.4 L 86.1 3.8 L 94 3.8 L 73.4 70 L 64.9 70 L 47 14.4 L 29.1 70 Z M 305.8 52.5 L 313.4 52.5 A 10.491 10.491 0 0 0 315.718 57.546 A 12.857 12.857 0 0 0 316.2 58.1 Q 318.5 60.6 321.95 62.05 A 18.859 18.859 0 0 0 328.778 63.491 A 21.723 21.723 0 0 0 329.4 63.5 Q 334.842 63.5 338.434 61.385 A 12.097 12.097 0 0 0 340.45 59.9 A 12.349 12.349 0 0 0 343.269 56.229 A 11.237 11.237 0 0 0 344.4 51.2 Q 344.4 47.8 342.55 44.95 A 13.59 13.59 0 0 0 338.088 40.688 A 16.094 16.094 0 0 0 337.5 40.35 A 14.178 14.178 0 0 0 332.627 38.771 A 18.133 18.133 0 0 0 330.1 38.6 L 322.5 38.6 L 322.5 31.7 L 329.2 31.7 A 15.843 15.843 0 0 0 333.899 31.018 A 14.441 14.441 0 0 0 335.65 30.35 A 12.293 12.293 0 0 0 339.23 27.908 A 11.486 11.486 0 0 0 340.4 26.55 A 9.281 9.281 0 0 0 342.2 20.95 A 11.333 11.333 0 0 0 342.2 20.9 A 10.713 10.713 0 0 0 341.536 17.061 A 9.571 9.571 0 0 0 338.85 13.25 A 10.691 10.691 0 0 0 335.092 11.157 Q 333.485 10.625 331.524 10.423 A 24.687 24.687 0 0 0 329 10.3 A 21.601 21.601 0 0 0 325.014 10.646 Q 321.617 11.284 319.25 13.1 A 13.316 13.316 0 0 0 316.849 15.439 A 9.678 9.678 0 0 0 314.9 19.7 L 307.6 19.7 A 17.346 17.346 0 0 1 309.632 13.477 A 21.076 21.076 0 0 1 310.65 11.8 A 18.564 18.564 0 0 1 315.249 7.099 A 23.49 23.49 0 0 1 317.8 5.5 A 20.015 20.015 0 0 1 323.72 3.445 A 27.628 27.628 0 0 1 328.8 3 Q 336.471 3 341.538 6.033 A 17.135 17.135 0 0 1 344.15 7.95 A 16.059 16.059 0 0 1 349.678 19.648 A 20.677 20.677 0 0 1 349.7 20.6 Q 349.7 23.9 348.15 26.85 A 18.609 18.609 0 0 1 345.136 31.083 A 17.181 17.181 0 0 1 344.3 31.9 A 15.636 15.636 0 0 1 342.431 33.375 Q 341.364 34.085 340.297 34.495 A 8.939 8.939 0 0 1 339.7 34.7 A 21.724 21.724 0 0 1 344.709 37.347 A 17.602 17.602 0 0 1 348.7 41.3 Q 351.9 45.7 351.9 51 A 19.612 19.612 0 0 1 351.028 56.94 A 17.026 17.026 0 0 1 348.9 61.35 A 20.279 20.279 0 0 1 341.117 68.142 A 23.915 23.915 0 0 1 340.8 68.3 A 24.638 24.638 0 0 1 332.099 70.68 A 29.909 29.909 0 0 1 329.4 70.8 A 27.313 27.313 0 0 1 321.715 69.745 A 24.468 24.468 0 0 1 318.05 68.35 A 24.761 24.761 0 0 1 311.965 64.313 A 22.349 22.349 0 0 1 309.6 61.8 Q 306.3 57.7 305.8 52.5 Z M 245.1 45 L 245.1 48 L 203.2 48 Q 203.8 52.4 206.05 56.05 Q 208.3 59.7 212.1 61.85 A 16.536 16.536 0 0 0 218.164 63.828 A 21.107 21.107 0 0 0 220.9 64 A 19.838 19.838 0 0 0 224.926 63.612 A 14.028 14.028 0 0 0 229.8 61.65 Q 233.4 59.3 235.4 55.6 L 243.6 55.6 Q 241 62.3 235.35 66.55 Q 229.855 70.683 221.287 70.797 A 36.719 36.719 0 0 1 220.8 70.8 Q 213.2 70.8 207.5 67.35 Q 201.8 63.9 198.65 58 Q 195.5 52.1 195.5 45 A 29.817 29.817 0 0 1 196.665 36.552 A 26.341 26.341 0 0 1 198.5 31.95 Q 201.5 26.1 207.1 22.65 A 23.056 23.056 0 0 1 215.964 19.504 A 29.961 29.961 0 0 1 220.3 19.2 Q 228 19.2 233.55 22.65 Q 239.1 26.1 242.1 31.95 A 27.478 27.478 0 0 1 245.019 42.674 A 33.058 33.058 0 0 1 245.1 45 Z M 137.1 28.1 L 137.1 20 L 144.6 20 L 144.6 70 L 137.1 70 L 137.1 62 Q 134.3 66 129.85 68.4 A 19.461 19.461 0 0 1 124.12 70.373 A 26.983 26.983 0 0 1 119.2 70.8 Q 111.9 70.8 106.45 67.35 Q 101 63.9 98 58 A 27.928 27.928 0 0 1 95.026 46.321 A 32.837 32.837 0 0 1 95 45 A 29.817 29.817 0 0 1 96.165 36.552 A 26.341 26.341 0 0 1 98 31.95 Q 101 26.1 106.45 22.65 Q 111.9 19.2 119.2 19.2 Q 125.4 19.2 129.85 21.6 Q 134.3 24 137.1 28.1 Z M 267.2 70 L 259.7 70 L 259.7 26.6 L 249.5 26.6 L 249.5 20 L 259.7 20 L 259.7 2.1 L 267.2 2.1 L 267.2 20 L 278.7 20 L 278.7 26.6 L 267.2 26.6 L 267.2 70 Z M 165.1 70 L 157.6 70 L 157.6 0 L 165.1 0 L 165.1 70 Z M 185.6 70 L 178.1 70 L 178.1 0 L 185.6 0 L 185.6 70 Z M 120.2 64 A 20.03 20.03 0 0 0 124.614 63.537 A 14.677 14.677 0 0 0 129.65 61.4 Q 133.5 58.8 135.5 54.45 A 22.187 22.187 0 0 0 137.492 45.635 A 25.66 25.66 0 0 0 137.5 45 Q 137.5 39.8 135.5 35.5 Q 133.5 31.2 129.65 28.6 A 14.871 14.871 0 0 0 124.038 26.343 A 20.519 20.519 0 0 0 120.2 26 A 19.551 19.551 0 0 0 115.373 26.571 A 15.523 15.523 0 0 0 110.7 28.6 Q 106.7 31.2 104.6 35.5 A 20.935 20.935 0 0 0 102.542 43.555 A 24.859 24.859 0 0 0 102.5 45 A 21.636 21.636 0 0 0 104.108 53.351 A 20.883 20.883 0 0 0 104.6 54.45 Q 106.7 58.8 110.7 61.4 A 15.994 15.994 0 0 0 117.225 63.794 A 20.862 20.862 0 0 0 120.2 64 Z M 203.3 41 L 237.3 41 A 19.235 19.235 0 0 0 234.722 33.82 A 18.316 18.316 0 0 0 231.9 30.3 A 14.836 14.836 0 0 0 223.776 26.277 A 20.937 20.937 0 0 0 220.3 26 A 19.538 19.538 0 0 0 215.205 26.63 A 14.306 14.306 0 0 0 208.75 30.3 Q 204.4 34.6 203.3 41 Z" vector-effect="non-scaling-stroke"/>
    </g>
</svg>