<svg id="Layer_1" data-name="Layer 1" xmlns="http://www.w3.org/2000/svg" viewBox="0 0 324 324"><defs><style
    >.cls-1{fill:#70d44b;}.cls-2{fill:#70d44b;}</style></defs>
    <!-- <path
    class="cls-1"
    d="M126.47,242.92a.37.37,0,0,1,.37.38v15.95c0,7.57-4.73,11.29-11,11.29s-11-3.72-11-11.29V243.3a.38.38,0,0,1,.38-.38H109a.38.38,0,0,1,.37.38V259c0,5.28,2.76,7.37,6.52,7.37s6.51-2.09,6.51-7.37V243.3a.38.38,0,0,1,.38-.38Z"
  /><path
    class="cls-1"
    d="M191.46,256.5a14.08,14.08,0,1,1-14.08-14A13.83,13.83,0,0,1,191.46,256.5Zm-23.74,0a9.64,9.64,0,1,0,9.66-9.85A9.51,9.51,0,0,0,167.72,256.5Z"
  /><path
    class="cls-1"
    d="M230,270.08h-3.84a.38.38,0,0,1-.35-.52L236,243.32a.55.55,0,0,1,.53-.36h4.8a.57.57,0,0,1,.53.36L252,269.56a.38.38,0,0,1-.35.52h-3.84a.39.39,0,0,1-.35-.25l-8.19-21.6a.37.37,0,0,0-.7,0l-8.2,21.6A.37.37,0,0,1,230,270.08Z"
  /><path
    class="cls-1"
    d="M76.22,270.08H72.38a.38.38,0,0,1-.35-.52l10.15-26.24a.57.57,0,0,1,.53-.36h4.8a.55.55,0,0,1,.53.36L98.2,269.56a.38.38,0,0,1-.35.52H94a.37.37,0,0,1-.35-.25l-8.19-21.6a.38.38,0,0,0-.71,0l-8.19,21.6A.39.39,0,0,1,76.22,270.08Z"
  /><path
    class="cls-1"
    d="M218.7,269.47l-7.62-9.74c4.3-.81,6.82-3.72,6.82-8.17,0-5.11-3.33-8.6-9.22-8.6H198.05a.57.57,0,0,0-.57.57h0a3.62,3.62,0,0,0,3.62,3.61h7.11c3.57,0,5.27,1.83,5.27,4.46s-1.66,4.49-5.27,4.49H198.05a.58.58,0,0,0-.57.57v13a.38.38,0,0,0,.38.38h3.63a.38.38,0,0,0,.37-.38V260H206l6.62,8.63a3.77,3.77,0,0,0,3,1.48h2.75A.38.38,0,0,0,218.7,269.47Z"
  /><path
    class="cls-1"
    d="M157.19,269.47l-7.62-9.74c4.3-.81,6.82-3.72,6.82-8.17,0-5.11-3.33-8.6-9.22-8.6H136.54a.57.57,0,0,0-.57.57h0a3.62,3.62,0,0,0,3.62,3.61h7.11c3.57,0,5.27,1.83,5.27,4.46s-1.66,4.49-5.27,4.49H136.54a.58.58,0,0,0-.57.57v13a.38.38,0,0,0,.38.38H140a.38.38,0,0,0,.37-.38V260h4.19l6.61,8.63a3.77,3.77,0,0,0,3,1.48h2.75A.38.38,0,0,0,157.19,269.47Z"
  /> -->
  <path
    class="cls-2"
    d="M162,83a15.92,15.92,0,0,1,14.31,8.84l45,90A16,16,0,0,1,207,205H117a16,16,0,0,1-14.31-23.16l45-90A15.92,15.92,0,0,1,162,83m0-11a27,27,0,0,0-24.15,14.92l-45,90A27,27,0,0,0,117,216h90a27,27,0,0,0,24.15-39.08l-45-90A27,27,0,0,0,162,72Z"
  /></svg>
