<svg xmlns="http://www.w3.org/2000/svg" width="300" height="300" viewBox="0 0 300 300">
    <path d="M150,6.25A144.44,144.44,0,0,0,48,252.78h0A144.36,144.36,0,1,0,150,6.25Zm0,274.4a130,130,0,1,1,129.87-130A129.93,129.93,0,0,1,150,280.65Z" fill="#7B6FEA"/>
    <path d="M72.39,216.52c-11.17-23.68-12.19-52.74-2.16-77a93.48,93.48,0,0,1,26.55-36.09C113,90,134.11,82,155.24,82.06l.06-13V66.59s-1.91,0-2.71,0a110.27,110.27,0,0,0-72.6,31c-17.42,17.07-28.33,40.51-31.09,64.68-3,26.07,4.33,53.38,20.69,74l.26.33c6.69,8.35,14.6,15.93,24,21A114.47,114.47,0,0,0,145,271.68C114.14,266,85.77,244.9,72.39,216.52Z" fill="#7B6FEA"/>
    <path d="M228.81,233.59c-3,.28-6.07.5-9.1.67-25.55,1.44-53.78.83-76.33-12.86a66.3,66.3,0,0,1-16.47-14.08C110.68,188,111.25,158.77,132,142.84c18.1-13.88,45.32-11.25,59.9,6.5,1.29,1.58,4.12,5.17,4.12,5.17s4.77-2.51,6.28-3.26l.48-.23.31-.16.82-.4.4-.2,3.6-1.78,2-1-.06-.1a60,60,0,0,0-16.46-17.93,60.75,60.75,0,0,0-43.87-10.64c-24.82,3.76-45.36,22.87-49.45,47.74-4.22,25.7,8.65,50.35,29.8,64.68,22,14.88,49.62,16.95,75.7,15.88,6.11-.25,18.57-1.3,18.54-1.51a130.34,130.34,0,0,0,14.21-13.45S230.09,233.48,228.81,233.59Z" fill="#7B6FEA"/>
    <path d="M185.62,256.78q-4.68-.11-9.35-.56c-25.69-2.46-51.91-12.18-68.86-32.4C91.69,205.08,85.08,178.5,92.76,155A67.73,67.73,0,0,1,181.68,113s3-6.63,3.34-7.25l0-.11.11-.23.22-.47c1-2.07,1.91-4.17,2.93-6.21-21.57-7.71-44.82-8.1-65.94,1.51A83.78,83.78,0,0,0,90,226.67c9.23,12.35,22,21.88,35.63,29,21.65,11.18,52.81,12.6,55,12.12,10.75-2.56,26.17-9.92,29.33-12.35-4.64.93-12.64,1.22-17.36,1.36Q189.14,256.87,185.62,256.78Z" fill="#7B6FEA"/>
</svg>