<?xml version="1.0" encoding="UTF-8"?>
<svg width="40px" height="40px" viewBox="0 0 40 40" version="1.1" xmlns="http://www.w3.org/2000/svg" xmlns:xlink="http://www.w3.org/1999/xlink">
    <title>Icons/Tokens/Heco</title>
    <g id="Icons/Tokens/Heco" stroke="none" stroke-width="1" fill="none" fill-rule="evenodd">
        <circle id="Oval" stroke="#DDDDDD" fill="#FFFFFF" cx="20" cy="20" r="19.5"></circle>
        <g id="Group" transform="translate(9.000000, 3.000000)" fill-rule="nonzero">
            <path d="M14.1666644,10.4640384 C14.1666644,5.58229003 11.8529785,1.3841372 10.0929969,0.0172160719 C10.0858285,0.0127413036 9.95828604,-0.0606981864 9.9690527,0.134350605 C9.9693077,0.136982914 9.96699854,0.137772564 9.96699854,0.140141514 C9.82050104,9.5659142 5.13551354,12.1205042 2.55982937,15.5619417 C-3.3841923,23.50335 2.1439102,32.210325 7.77292187,33.819375 C10.9227952,34.7198084 7.0455627,32.22605 6.54615937,26.9591667 C5.94250354,20.5930917 14.1666644,15.7340667 14.1666644,10.4640384" id="Path" fill="#151516"></path>
            <path d="M17.855381,14.206475 C17.7430394,15.3631834 16.3770894,17.8365417 14.6454977,20.1078834 C8.77298937,27.8125667 12.119581,31.526075 14.0014952,33.521025 C15.0940144,34.6790084 14.0014952,33.521025 16.7323894,32.3375417 C16.946731,32.2448917 22.061181,29.76445 22.6152394,24.113225 C23.1514477,18.6410667 19.3503894,15.191625 17.9974727,14.1893334 C17.955681,14.1647117 17.8964644,14.1477825 17.855381,14.206475 Z" id="Path" fill="#3F7FFF"></path>
        </g>
    </g>
</svg>