<?xml version="1.0" standalone="no"?>
<!DOCTYPE svg PUBLIC "-//W3C//DTD SVG 20010904//EN"
 "http://www.w3.org/TR/2001/REC-SVG-20010904/DTD/svg10.dtd">
<svg version="1.0" xmlns="http://www.w3.org/2000/svg"
 width="200.000000pt" height="200.000000pt" viewBox="0 0 200.000000 200.000000"
 preserveAspectRatio="xMidYMid meet">

<g transform="translate(-20.000000,225.000000) scale(0.125,-0.125)"
fill="#fff" stroke="none">
<path d="M591 1713 c-35 -37 -39 -50 -165 -520 -138 -516 -139 -526 -93 -578
29 -33 602 -363 644 -371 18 -3 46 -2 62 4 47 17 624 352 644 374 9 11 17 36
17 56 0 40 -244 962 -266 1004 -7 14 -26 36 -40 47 -26 20 -37 21 -397 21
l-369 0 -37 -37z m706 -79 c5 -13 -249 -991 -278 -1071 -22 -60 -36 -19 -177
510 -79 292 -143 539 -142 548 0 9 3 19 7 22 3 4 136 7 295 7 256 0 289 -2
295 -16z m-530 -689 c72 -270 132 -497 132 -506 1 -9 -5 -19 -12 -22 -6 -2
-115 55 -240 127 -162 93 -229 137 -233 152 -3 12 38 182 90 378 53 197 96
360 96 362 0 3 8 4 18 2 14 -3 43 -98 149 -493z m721 151 c51 -188 92 -355 92
-369 0 -14 -10 -37 -22 -52 -29 -32 -429 -264 -445 -258 -7 3 -13 10 -13 17
-1 6 59 235 132 509 104 391 136 497 148 497 13 0 36 -75 108 -344z"/>
</g>
</svg>
