<?xml version="1.0" encoding="utf-8" ?>
<!-- Generator: Adobe Illustrator 25.2.3, SVG Export Plug-In . SVG Version: 6.00 Build 0)  -->
<svg
  version="1.1"
  id="Isolation_Mode"
  xmlns="http://www.w3.org/2000/svg"
  xmlns:xlink="http://www.w3.org/1999/xlink"
  x="0px"
  y="0px"
  viewBox="-15 -10 140 140"
  xml:space="preserve"
>
<style type="text/css">
	.st0{fill-rule:evenodd;clip-rule:evenodd;fill:#ffffff;}
</style>
<g>
	<g>
		<path
        class="st0"
        d="M25.9,21.8c0.2,0.7,0.9,1.1,1.5,0.9L82.9,7.8c1.3-0.4,1.1-2.4-0.2-2.4L21.7,0c-0.9,0-1.5,0.7-1.3,1.5
			L25.9,21.8z M31.3,58.3l-8-30.2l-1.1-4L17.9,8c-0.4-1.3-2-1.3-2.4,0L0,66.1c-0.2,0.9,0.5,1.6,1.5,1.5l29.1-7.8
			C31.2,59.5,31.5,59,31.3,58.3z M94.3,8.9c1.6-0.4,3.6,0.4,4.6,1.8l14.6,25.1c0.4,0.7,0,1.6-0.7,1.8L36.8,57.9
			c-0.7,0.2-1.3-0.2-1.5-0.9l-7.8-29.1c-0.2-0.7,0.2-1.3,0.9-1.5L94.3,8.9z M33,64.4c-0.2-0.7-0.9-1.1-1.5-0.9L2.4,71.4
			c-0.7,0.4-1.1,1.5-0.5,2.2l42.6,43c0.9,0.9,2.4,0,2-1.1L33,64.4z M37.7,61.9l72.5-19.3c1.1-0.4,2,0.9,1.3,2l-58.1,73
			c-0.5,0.7-1.8,0.5-2.2-0.4L36.8,63.5C36.8,62.8,37.2,62.1,37.7,61.9z"
      />
	</g>
</g>
</svg>
