<svg width="343" height="336" viewBox="0 0 343 336" fill="none" xmlns="http://www.w3.org/2000/svg">
<mask id="mask0_12_37" style="mask-type:alpha" maskUnits="userSpaceOnUse" x="0" y="211" width="343" height="125">
<path d="M0 211.69H342.095V335.332H0V211.69Z" fill="white" />
</mask>
<g mask="url(#mask0_12_37)">
<path
      fill-rule="evenodd"
      clip-rule="evenodd"
      d="M170.717 274.62C158.663 274.62 147.462 272.228 138.318 267.701L39.8635 218.968L10.3614 235.752C-3.66183 243.727 -3.41688 255.954 10.9079 263.045L147.08 330.453C153.694 333.724 162.149 335.335 170.717 335.335C180.723 335.335 190.874 333.142 198.429 328.846L331.738 253.002C345.761 245.023 345.516 232.797 331.191 225.709L302.881 211.69L208.166 265.58C197.916 271.406 184.618 274.62 170.717 274.62Z"
      fill="#fff"
    />
</g>
<path
    fill-rule="evenodd"
    clip-rule="evenodd"
    d="M332.065 145.006L308.427 133.132L253.381 164.908L243.93 170.362L234.484 175.816L208.716 190.692C198.439 196.629 185.101 199.893 171.168 199.893C159.082 199.893 147.851 197.46 138.684 192.859L109.16 178.028L99.3886 173.125L89.6168 168.217L35.2176 140.889L10.389 155.223C-3.67126 163.341 -3.43039 175.775 10.9321 182.99L39.3219 197.248L49.0937 202.155L58.8608 207.063L147.468 251.566C154.095 254.893 162.577 256.528 171.168 256.528C181.195 256.528 191.378 254.302 198.949 249.931L284.137 200.756L293.587 195.302L303.033 189.848L332.613 172.773C346.674 164.659 346.428 152.221 332.065 145.006Z"
    fill="#fff"
  />
<path
    fill-rule="evenodd"
    clip-rule="evenodd"
    d="M332.065 72.2593L195.529 4.87999C188.903 1.60596 180.425 0 171.829 0C161.803 0 151.62 2.19156 144.049 6.48595L10.389 82.3032C-3.67126 90.2754 -3.43039 102.493 10.9321 109.582L34.5706 121.25L44.3424 126.072L54.1142 130.895L108.513 157.743L118.285 162.561L128.057 167.388L147.468 176.971C154.095 180.24 162.577 181.846 171.168 181.846C181.195 181.846 191.378 179.655 198.949 175.36L214.941 166.288L224.391 160.929L233.837 155.57L288.883 124.347L298.334 118.987L307.78 113.628L332.613 99.5429C346.674 91.5708 346.428 79.3486 332.065 72.2593Z"
    fill="#fff"
  />
</svg>
