<svg width="32" height="32" viewBox="-4.5 0 32 32" fill="none" class="lg:hidden" xmlns="http://www.w3.org/2000/svg"><path
    fill-rule="evenodd"
    clip-rule="evenodd"
    d="M2.47892 0H20.1412C21.5103 0 22.6202 1.10985 22.6202 2.47892V21.8758C22.6202 22.8091 22.1994 23.6928 21.4749 24.2812L12.4821 31.584C11.7992 32.1386 10.821 32.1386 10.1381 31.584L1.14527 24.2812C0.420723 23.6928 0 22.8091 0 21.8758V2.47892C0 1.10985 1.10985 0 2.47892 0Z"
    fill="#ffffff20"
  /><path
    fill-rule="evenodd"
    clip-rule="evenodd"
    d="M17.042 3.71826C18.0688 3.71826 18.9012 4.55065 18.9012 5.57745V11.5744L18.9006 11.6234C18.8749 12.8464 17.8884 13.8332 16.6655 13.8592L16.6157 13.8598L16.6648 13.8603C17.8878 13.886 18.8745 14.8725 18.9006 16.0955L18.9012 16.1452V19.8965C18.9012 20.4301 18.6718 20.9381 18.2715 21.291L13.6012 25.4087L13.6013 17.0045C13.6013 15.9777 12.7689 15.1453 11.7421 15.1453H9.01763L9.01755 25.4087L4.3474 21.291C3.9471 20.9381 3.71777 20.4301 3.71777 19.8965V5.57745C3.71777 4.55065 4.55016 3.71826 5.57696 3.71826H17.042ZM13.6013 6.28935H9.01763V12.0029H11.7421C12.7689 12.0029 13.6013 11.1705 13.6013 10.1437V6.28935Z"
    fill="#ffffff50"
  />
</svg>
